<svg xmlns="http://www.w3.org/2000/svg" viewBox="0 0 512 512">
  <defs>
    <linearGradient id="bg" x1="0" y1="0" x2="1" y2="1">
      <stop offset="0" stop-color="#fff4d8"/>
      <stop offset="0.55" stop-color="#dff2dd"/>
      <stop offset="1" stop-color="#ffd3a7"/>
    </linearGradient>
    <filter id="shadow" x="-20%" y="-20%" width="140%" height="140%">
      <feDropShadow dx="0" dy="18" stdDeviation="16" flood-color="#6b4424" flood-opacity="0.25"/>
    </filter>
  </defs>
  <rect width="512" height="512" rx="112" fill="url(#bg)"/>
  <circle cx="256" cy="256" r="146" fill="none" stroke="#ffffff" stroke-width="16" opacity="0.9"/>
  <g filter="url(#shadow)">
    <path d="M171 176c51-44 142-37 174 14 32 52 0 131-66 152-69 22-139-23-143-84-2-31 12-61 35-82Z" fill="#ffffff"/>
    <path d="M188 195c37-31 104-27 128 10 24 38 0 96-48 112-51 16-103-17-106-62-2-23 9-45 26-60Z" fill="#176653"/>
    <circle cx="318" cy="178" r="44" fill="#f06f2f"/>
    <circle cx="196" cy="326" r="35" fill="#8ca857"/>
  </g>
</svg>
